<svg width="200" height="200" viewBox="0 0 200 200" xmlns="http://www.w3.org/2000/svg">
  <defs>
    <style>
      .outline { fill: none; stroke: #2c5282; stroke-width: 4; stroke-linecap: round; stroke-linejoin: round; }
      .squid-body { fill: #dbeafe; } /* Light Blue */
      .bunny-body { fill: #ed8936; } /* Orange/Brown */
      .bunny-face { fill: #fbd38d; } /* Lighter Tan */
      .blush { fill: #fbb6ce; opacity: 0.8; }
      .eye { fill: #2d3748; }
      .shine { fill: white; opacity: 0.9; }
    </style>
  </defs>

  <g transform="translate(110, 80)">
    <ellipse cx="25" cy="-20" rx="10" ry="35" transform="rotate(10)" fill="#fbd38d" stroke="#5c3a18" stroke-width="4"/>
    <ellipse cx="25" cy="-20" rx="5" ry="25" transform="rotate(10)" fill="#fbb6ce"/> <ellipse cx="-5" cy="-20" rx="10" ry="35" transform="rotate(-15)" fill="#fbd38d" stroke="#5c3a18" stroke-width="4"/>
    <ellipse cx="-5" cy="-20" rx="5" ry="25" transform="rotate(-15)" fill="#fbb6ce"/>
    
    <circle cx="10" cy="20" r="32" fill="#fbd38d" stroke="#5c3a18" stroke-width="4"/>
    
    <circle cx="-2" cy="15" r="3" class="eye"/>
    <circle cx="22" cy="15" r="3" class="eye"/>
    <ellipse cx="-2" cy="25" rx="5" ry="3" class="blush"/>
    <ellipse cx="22" cy="25" rx="5" ry="3" class="blush"/>
    <path d="M 7 22 Q 10 25 13 22" fill="none" stroke="#5c3a18" stroke-width="2" stroke-linecap="round"/>
    <circle cx="10" cy="20" r="1.5" fill="#ed8936"/>
  </g>

  <g transform="translate(70, 90)">
    <path d="M -30 -50 
             Q 0 -90 30 -50 
             Q 45 10 35 40 
             Q 55 50 60 30 
             Q 65 60 40 60
             Q 25 65 20 50
             Q 10 70 0 50
             Q -10 70 -20 50
             Q -30 65 -40 50
             Q -50 50 -45 30
             Q -45 10 -30 -50 Z" 
             class="squid-body" stroke="#2c5282" stroke-width="4"/>

    <path d="M -15 -55 Q -5 -65 5 -55" fill="none" stroke="white" stroke-width="3" opacity="0.6" stroke-linecap="round"/>

    <circle cx="-12" cy="10" r="5" class="eye"/>
    <circle cx="-10" cy="8" r="2" class="shine"/> <circle cx="12" cy="10" r="5" class="eye"/>
    <circle cx="14" cy="8" r="2" class="shine"/> <ellipse cx="-18" cy="18" rx="4" ry="2.5" class="blush"/>
    <ellipse cx="18" cy="18" rx="4" ry="2.5" class="blush"/>
    
    <path d="M -5 15 Q 0 20 5 15" fill="none" stroke="#2c5282" stroke-width="2" stroke-linecap="round"/> </g>

  <path d="M 30 70 C 20 60, 10 70, 30 90 C 50 70, 40 60, 30 70" fill="#ed8936" transform="rotate(-15 30 80)"/>
  <path d="M 160 50 C 150 40, 140 50, 160 70 C 180 50, 170 40, 160 50" fill="#63b3ed" transform="rotate(15 160 60) scale(0.8)"/>
  
  <circle cx="40" cy="110" r="4" fill="#bee3f8" opacity="0.6"/>
  <circle cx="170" cy="90" r="3" fill="#bee3f8" opacity="0.6"/>
  <circle cx="50" cy="50" r="3" fill="#bee3f8" opacity="0.6"/>

</svg>
